<?xml version="1.0" encoding="UTF-8" standalone="no"?>
<svg
   xmlns:dc="http://purl.org/dc/elements/1.1/"
   xmlns:cc="http://creativecommons.org/ns#"
   xmlns:rdf="http://www.w3.org/1999/02/22-rdf-syntax-ns#"
   xmlns:svg="http://www.w3.org/2000/svg"
   xmlns="http://www.w3.org/2000/svg"
   xmlns:sodipodi="http://sodipodi.sourceforge.net/DTD/sodipodi-0.dtd"
   xmlns:inkscape="http://www.inkscape.org/namespaces/inkscape"
   data-name="Layer 1"
   id="Layer_1"
   viewBox="0 0 150 150"
   version="1.1"
   sodipodi:docname="linkedin.svg"
   width="150"
   height="150"
   inkscape:version="0.92.2 (unknown)">
  <metadata
     id="metadata246">
    <rdf:RDF>
      <cc:Work
         rdf:about="">
        <dc:format>image/svg+xml</dc:format>
        <dc:type
           rdf:resource="http://purl.org/dc/dcmitype/StillImage" />
        <dc:title></dc:title>
      </cc:Work>
    </rdf:RDF>
  </metadata>
  <defs
     id="defs244" />
  <sodipodi:namedview
     pagecolor="#ffffff"
     bordercolor="#666666"
     borderopacity="1"
     objecttolerance="10"
     gridtolerance="10"
     guidetolerance="10"
     inkscape:pageopacity="0"
     inkscape:pageshadow="2"
     inkscape:window-width="1853"
     inkscape:window-height="1027"
     id="namedview242"
     showgrid="false"
     inkscape:zoom="1.84375"
     inkscape:cx="64"
     inkscape:cy="64"
     inkscape:window-x="65"
     inkscape:window-y="24"
     inkscape:window-maximized="0"
     inkscape:current-layer="Layer_1" />
  <rect
     height="30"
     width="10"
     x="42"
     y="78"
     id="rect233" />
  <circle
     cx="47"
     cy="68"
     r="6"
     id="circle235" />
  <path
     d="M 75,0 A 75,75 0 1 0 150,75 75,75 0 0 0 75,0 Z m 37.5,107.8125 A 4.6875,4.6875 0 0 1 107.8125,112.5 H 42.1875 A 4.6875,4.6875 0 0 1 37.5,107.8125 V 42.1875 A 4.6875,4.6875 0 0 1 42.1875,37.5 h 65.625 a 4.6875,4.6875 0 0 1 4.6875,4.6875 z"
     id="path237"
     inkscape:connector-curvature="0"
     style="stroke-width:1.17187512" />
  <path
     d="m 76,78 c -5.52,0 -10,2 -10,7 V 78 H 56 v 30 H 66 V 92 c 0,-1.66 1,-7 5,-7 2.76,0 5,1.34 5,3 v 20 H 86 V 88 A 10,10 0 0 0 76,78 Z"
     id="path239"
     inkscape:connector-curvature="0" />
</svg>
